HIERARCHY
ROOT Hips
{
  OFFSET 0.454186 100.25 1.17262
  CHANNELS 6 Xposition Yposition Zposition Zrotation Xrotation Yrotation
  JOINT Spine
  {
    OFFSET 0 10.1816 0.1315
    CHANNELS 3 Zrotation Xrotation Yrotation
    JOINT Spine1
    {
      OFFSET 0 10.0835 -1.0008
      CHANNELS 3 Zrotation Xrotation Yrotation
      JOINT Spine2
      {
        OFFSET 0 9.1 -1.3734
        CHANNELS 3 Zrotation Xrotation Yrotation
        JOINT Neck
        {
          OFFSET 0 16.6717 -2.5162
          CHANNELS 3 Zrotation Xrotation Yrotation
          JOINT Head
          {
            OFFSET 0 9.6179 1.685
            CHANNELS 3 Zrotation Xrotation Yrotation
            End Site
            {
              OFFSET 0 0 0
            }
          }
        }
        JOINT LeftShoulder
        {
          OFFSET 4.5704 10.946 -2.628
          CHANNELS 3 Zrotation Xrotation Yrotation
          JOINT LeftArm
          {
            OFFSET 10.5924 -0.5246 -2.2321
            CHANNELS 3 Zrotation Xrotation Yrotation
            JOINT LeftForeArm
            {
              OFFSET 27.8415 -0.0001 0
              CHANNELS 3 Zrotation Xrotation Yrotation
              JOINT LeftHand
              {
                OFFSET 28.3288 0 0
                CHANNELS 3 Zrotation Xrotation Yrotation
                End Site
                {
                  OFFSET 0 0 0
                }
              }
            }
          }
        }
        JOINT RightShoulder
        {
          OFFSET -4.57 10.9462 -2.628
          CHANNELS 3 Zrotation Xrotation Yrotation
          JOINT RightArm
          {
            OFFSET -10.5928 -0.5248 -2.2321
            CHANNELS 3 Zrotation Xrotation Yrotation
            JOINT RightForeArm
            {
              OFFSET -27.8415 0 0
              CHANNELS 3 Zrotation Xrotation Yrotation
              JOINT RightHand
              {
                OFFSET -28.3288 0 0.0001
                CHANNELS 3 Zrotation Xrotation Yrotation
                End Site
                {
                  OFFSET 0 0 0
                }
              }
            }
          }
        }
      }
    }
  }
  JOINT LeftUpLeg
  {
    OFFSET 8.2078 -6.7517 -1.5996
    CHANNELS 3 Zrotation Xrotation Yrotation
    JOINT LeftLeg
    {
      OFFSET 0 -44.3705 0.2846
      CHANNELS 3 Zrotation Xrotation Yrotation
      JOINT LeftFoot
      {
        OFFSET 0 -44.4279 -2.9822
        CHANNELS 3 Zrotation Xrotation Yrotation
        JOINT LeftToeBase
        {
          OFFSET 0 -8.7287 10.7106
          CHANNELS 3 Zrotation Xrotation Yrotation
          End Site
          {
            OFFSET 0 0 0
          }
        }
      }
    }
  }
  JOINT RightUpLeg
  {
    OFFSET -8.2078 -6.7517 -1.5996
    CHANNELS 3 Zrotation Xrotation Yrotation
    JOINT RightLeg
    {
      OFFSET 0 -44.3705 0.2862
      CHANNELS 3 Zrotation Xrotation Yrotation
      JOINT RightFoot
      {
        OFFSET 0 -44.4277 -2.9838
        CHANNELS 3 Zrotation Xrotation Yrotation
        JOINT RightToeBase
        {
          OFFSET 0 -8.7287 10.7106
          CHANNELS 3 Zrotation Xrotation Yrotation
          End Site
          {
            OFFSET 0 0 0
          }
        }
      }
    }
  }
}
MOTION
Frames:	10
Frame Time:	0.0416667
0.454186 100.25 1.17262 -4.46122 -2.43722 -0.0744261 1.34137 1.72118 -0.00997013 0.718809 3.44641 0.200607 0.718809 3.4464 0.200606 3.71808 -0.911297 -1.49747 4.3227 1.08192 2.27698 -9.73604 2.21634 -9.41313 -70.7002 8.45113 -4.81519 4.23566 31.9887 -7.09417 -2.95696 -5.1136 -6.69497 20.1348 1.6342 2.63425 51.206 11.7294 17.4187 -3.7625 23.4782 8.51383 -4.73389 -6.38046 9.77594 5.12797 -24.0929 6.26059 1.61878 60.6289 9.38964 5.78307 -5.42297 0.0816488 1.52127e-06 -1.73489 1.85501e-06 7.5202 -11.06 -2.6152 -0.162809 27.0854 -10.0081 -1.12247 -14.1259 -0.369235 1.78026e-06 -0.146932 -0.00574847 
0.231675 100.6 4.7883 -2.89255 -1.78402 -0.0624953 0.971773 1.68045 0.439021 0.440929 3.36323 0.922817 0.44093 3.36323 0.922817 2.69497 -1.02519 -1.63066 4.96212 0.563549 1.1267 -10.7159 2.08801 -8.09003 -71.767 6.32414 0.18074 4.30035 29.7556 -7.75149 -2.96606 -5.13987 -6.6452 18.8326 1.87383 3.8793 48.6641 11.2967 21.6066 -3.99381 20.5552 10.3882 -4.37634 -6.17736 9.05089 1.76339 -26.4056 5.00027 1.20245 49.9345 12.0229 5.3735 -4.61492 0.0553255 -2.18362 -1.7901 0.0251761 5.83822 -8.55417 -3.31918 -0.117517 25.5253 -9.27198 -0.966037 -15.7163 -0.293038 -0.00235348 -0.0243426 0.00244116 
0.0197222 101.02 8.345 -1.59521 -1.08764 -0.0351374 0.578076 1.63587 0.838575 0.266739 3.27334 1.62426 0.266739 3.27335 1.62427 1.84807 -1.14629 -1.83696 5.54673 0.0620139 -0.0989878 -11.462 1.97496 -7.0601 -72.2896 5.01142 4.86036 4.64047 27.3349 -9.16036 -2.62085 -5.20097 -6.84533 17.9289 2.03864 4.78225 45.8562 10.8067 25.2891 -4.11204 17.6373 12.4907 -5.06368 -6.05744 8.30302 -1.26338 -27.7506 3.20511 0.854675 36.5885 13.3582 6.83932 -0.280183 -0.357627 -1.03862 -0.765868 0.0817293 4.59287 -5.50605 -3.64281 -0.11093 22.5968 -8.95241 -0.804286 -16.4325 -0.225046 -0.00657306 -0.144467 0.0114767 
-0.119121 101.398 11.9346 -0.734675 -0.335664 0.130313 0.18856 1.54785 1.12457 0.207706 3.09762 2.21995 0.207706 3.09762 2.21995 1.35076 -1.14379 -2.12312 6.07505 -0.281045 -1.31752 -11.7969 1.8886 -6.43599 -72.6381 4.08575 9.20818 4.97518 25.5306 -10.5549 -1.84717 -5.27762 -7.07953 17.5 2.12747 5.28186 43.323 10.0559 28.082 -4.12855 15.1868 14.5488 -6.62349 -6.0438 7.78594 -3.58636 -27.1361 1.60751 0.923083 20.7207 11.7723 8.34752 5.34064 -0.990935 0.00841194 -0.0636696 0.0328932 3.78806 -2.7965 -3.91211 -0.122484 20.0066 -8.82457 -0.65189 -15.9317 -0.197657 0.155644 -1.73088 0.00840639 
-0.16982 101.481 15.7644 -0.271268 0.344186 0.421778 -0.0854672 1.4126 1.31338 0.215652 2.82768 2.63851 0.215652 2.82768 2.63851 1.19089 -1.04351 -2.42759 6.53659 -0.422009 -2.36993 -11.7543 1.82552 -6.12983 -73.0581 2.74602 12.9173 4.99606 24.5765 -11.0059 -1.05454 -5.32538 -7.07585 17.3861 2.16936 5.50152 41.7789 9.00021 29.8275 -4.08833 13.2925 16.415 -8.27093 -6.08482 7.59103 -5.03456 -25.9187 1.05025 0.743263 7.54302 8.03629 7.18236 7.43266 -1.03956 -0.133079 -0.179875 -0.0782896 3.22791 -1.10164 -4.51388 -0.101443 19.689 -8.41151 -0.332732 -14.9288 -0.169965 0.270961 -5.25859 0.00220512 
-0.147695 101.248 20.0376 -0.0129609 0.795797 0.556569 -0.172225 1.26822 1.45291 0.215662 2.53917 2.92184 0.215662 2.53917 2.92184 1.16121 -1.04007 -2.66152 6.92801 -0.466587 -3.13095 -11.6475 1.7651 -5.85931 -73.4213 0.835941 15.5922 4.57356 24.1577 -10.1952 -0.888065 -5.30829 -6.6762 17.3396 2.19761 5.63474 41.4623 7.93331 30.617 -3.98925 11.5564 18.3439 -9.36135 -6.10835 7.58429 -5.70585 -26.5158 1.48535 0.42124 3.50577 4.93486 3.96128 3.94738 -0.554176 0.0108323 -0.662376 -0.0957184 2.67604 0.484008 -5.36625 -0.0459056 20.548 -7.54273 0.409752 -13.8207 -0.0764609 -0.493446 -9.60084 -0.0910821 
-0.0197673 100.845 24.8101 0.299761 0.949523 0.159865 -0.175434 1.13845 1.60362 0.117302 2.27853 3.18654 0.117302 2.27853 3.18654 1.08563 -1.21455 -2.80544 7.3266 -0.50847 -3.65923 -11.804 1.68814 -5.38946 -73.4319 -0.879876 17.0648 3.92259 24.4463 -8.54366 -1.69535 -5.22548 -5.90712 17.2784 2.21917 5.74287 42.087 7.37519 30.4416 -3.81348 9.69526 20.7528 -9.98012 -6.10778 7.6507 -5.87285 -27.9244 2.05714 0.703268 6.48729 5.48712 1.97458 -0.444346 -0.299604 0.109649 -1.70752 0.00272734 1.86554 2.65277 -5.94808 0.00265956 21.3377 -6.58418 1.09647 -12.4241 0.0173679 -1.20558 -13.6265 -0.133952 
0.338988 100.608 29.9622 1.02555 0.761002 -0.65096 -0.336959 1.00828 1.75064 -0.205693 2.01365 3.44526 -0.205692 2.01365 3.44526 0.936616 -1.32956 -2.94237 7.89098 -0.475112 -4.24087 -12.2423 1.60792 -4.79721 -72.9939 -1.57525 17.3854 3.37148 26.1128 -6.76052 -3.31313 -5.10621 -5.05175 17.2894 2.2187 5.7373 43.3989 7.70309 29.0314 -3.60514 7.95868 23.6382 -10.6033 -6.13008 7.80699 -6.51027 -26.6518 1.9759 0.724885 8.09638 8.91542 3.02255 -0.0815385 -0.49394 -0.00509047 -2.58795 0.0917413 0.278066 4.95186 -5.74809 0.0332312 22.4458 -5.68845 2.85374 -8.83027 0.0670103 -0.800376 -19.1055 0.0243097 
0.80695 100.706 35.2391 2.36667 0.156805 -1.19941 -0.764906 0.881205 1.8204 -0.804657 1.75099 3.54261 -0.804657 1.75099 3.54261 0.711993 -1.07084 -3.14832 8.63368 -0.218339 -5.12025 -12.7096 1.5725 -4.43537 -72.3172 -1.20202 16.6436 3.08872 28.7846 -5.5308 -5.11852 -4.99278 -4.57 17.3692 2.18695 5.57838 45.5201 8.81052 26.1958 -3.47354 6.79915 26.3225 -11.3281 -6.1859 8.03089 -8.20114 -22.2167 1.71923 0.813156 5.91564 11.4389 5.72903 4.13921 -0.952052 -0.0815665 -2.35006 0.0680247 -2.42221 6.16389 -4.705 0.060922 25.591 -5.08727 9.12068 -0.959336 -0.497434 -4.93348 -28.2944 -1.28945 
1.29315 100.887 40.3235 3.8995 -0.827455 -1.04214 -1.21918 0.817106 1.74944 -1.4956 1.61517 3.3445 -1.4956 1.61518 3.3445 0.344572 -0.477153 -3.3705 9.27162 0.223307 -6.15665 -13.0437 1.61285 -4.51583 -71.6323 -0.206952 14.8445 3.26676 30.6291 -5.52847 -6.16528 -4.9349 -4.74846 17.32 2.14215 5.40838 48.5271 10.2347 22.2655 -3.47936 6.36075 27.9406 -11.7136 -6.2267 8.1905 -10.2661 -17.6365 2.3157 0.876043 4.5251 11.1957 7.76752 7.27422 -1.32423 0.011207 -1.15847 -0.0633845 -4.81168 5.62961 -3.64328 -0.0215342 32.0832 -5.74088 12.6579 7.24698 -1.80983 -5.48906 -31.9875 -1.43589 
